<svg version="1.2" xmlns="http://www.w3.org/2000/svg" viewBox="0 0 1341 520" width="1341" height="520">
	<title>firebit</title>
	<style>
		.s0 { fill: #4b1919 } 
		.s1 { fill: #702626 } 
		.s2 { fill: #4e0101 } 
		.s3 { fill: #6a0808 } 
		.s4 { fill: #9f0000 } 
		.s5 { fill: #ff0000 } 
		.s6 { fill: #ffffff } 
		.s7 { fill: #ff593e } 
	</style>
	<path id="Color Fill 8" fill-rule="evenodd" class="s0" d="m1019 278h40v-33h-40zm243 33h41v-33h-41z"/>
	<path id="Color Fill 7" fill-rule="evenodd" class="s1" d="m872 109h41v34h-41zm147 188h40v34h-40zm154 183h41v33h-41z"/>
	<path id="Color Fill 6" fill-rule="evenodd" class="s2" d="m928 68h67v-56h-67zm155 398h67v-56h-67zm179 1h68v-57h-68z"/>
	<path id="Color Fill 5" fill-rule="evenodd" class="s3" d="m1019 87h67v56h-67zm243 246h68v56h-68zm-88 77h67v56h-67z"/>
	<path id="Color Fill 4" fill-rule="evenodd" class="s4" d="m928 87h67v56h-67zm246 169h67v56h-67zm0 77h67v56h-67z"/>
	<path id="Color Fill 3" fill-rule="evenodd" class="s5" d="m198 195v28h73v-56h-73z"/>
	<path id="Color Fill 2" fill-rule="evenodd" class="s6" d="m12 167h157v56h-87v30h62v53h-62v83h-70zm295 0h55.2c44.7 0 57.3 0.3 65.8 1.6 5.8 0.8 14.1 2.7 18.5 4.2 4.4 1.5 11.1 4.5 15 6.7 3.8 2.1 9.9 6.8 13.5 10.4 3.6 3.7 8.4 9.7 10.5 13.6 2.2 3.9 5 10.6 6.4 15 2 6.6 2.4 10.3 2.5 21 0.1 10-0.4 14.5-1.8 19.5-1.1 3.6-3.5 9.6-5.5 13.5-2.3 4.4-6.2 9.6-10.6 14.1-3.9 3.9-9.7 8.6-13 10.5-3.3 2-8.2 4.4-10.8 5.5-2.6 1-4.6 2.4-4.4 2.9 0.2 0.5 10.8 19.3 23.5 41.8 12.8 22.4 23.2 40.9 23.2 41.2 0 0.3-17.4 0.4-77.3 0l-40.2-76.6-0.5 77.1h-70zm217 0h148v56h-78v27h69v53h-69v30h78v56h-148zm-147 96c34.1-0.5 35.8-0.7 39.2-2.8 2.1-1.2 4.6-3.7 5.5-5.5 1.1-2 1.7-5.5 1.7-9.2 0-4-0.6-7.3-2-9.9-1.2-2.5-3.5-4.8-6.4-6.5-4.2-2.4-5.5-2.6-21.1-2.9l-16.6-0.5zm-178-10h70v136h-70z"/>
	<path id="Color Fill 1" fill-rule="evenodd" class="s7" d="m706 167h58c33.7 0 62.1 0.4 67.8 1.1 5.3 0.5 12.6 1.7 16.2 2.5 3.6 0.9 10.1 3.3 14.5 5.4 6.1 3 9.6 5.5 14.5 10.7 3.6 3.7 7.6 9.1 9 11.8 1.3 2.7 3 7.3 3.7 10 0.7 2.7 1.6 8.6 1.9 13 0.4 5.6 0.1 10.2-1 15.5-0.9 4.1-2.9 10.2-4.5 13.5-1.5 3.3-4.6 8-6.8 10.5-2.2 2.5-5.8 5.7-7.9 7.2-2.1 1.5-6.6 3.9-9.9 5.3-3.3 1.3-5.2 2.5-4.2 2.5 0.9 0 5 1.5 9 3.3 4.6 2.1 9.5 5.5 13.6 9.3 3.5 3.3 7.8 8.5 9.6 11.9 1.9 3.3 4.1 8.7 5.1 12 1.2 4 1.8 9.5 1.8 16.5 0.1 5.8-0.5 13-1.3 16-0.7 3-2.7 8.4-4.4 12-2 4.3-5.3 8.8-9.6 13.2-5 5-8.5 7.5-14.6 10.3-4.4 2.1-11.4 4.7-15.5 5.8-6.7 1.8-10.9 2.1-75 2.7v-55h-70zm219 0h73v56h-73zm285 0v56h-59v166h-70v-166l-58.5-0.5-0.2-26.5c0-14.6 0.1-27 0.3-27.7 0.3-1 19.3-1.3 187.4-1.3zm-434 87c19 0 27.4-0.5 31-1 5.2-0.8 7.1-1.6 9.5-4 2.8-2.8 3-3.6 3-10.5 0-6.8-0.2-7.6-3-10.4-1.7-1.8-4.8-3.5-7.3-4.1-2.3-0.5-10.7-1-18.7-1h-14.5zm151-10h70v145h-70zm-151 89c36.5-0.5 38.9-0.7 42-2.5 1.9-1.2 4.3-3.6 5.3-5.5 1.3-2.5 1.7-4.9 1.3-8.5-0.2-2.8-1.3-6.1-2.3-7.5-1.1-1.4-3.5-3.3-5.4-4.2-2.9-1.5-6.3-1.8-22.2-1.8h-18.7z"/>
</svg>